<?xml version="1.0" encoding="UTF-8"?>
<svg width="200" height="200" viewBox="0 0 200 200" xmlns="http://www.w3.org/2000/svg">
  <!-- Cabeza de Thanos -->
  <path d="M100 30 C 60 30, 30 70, 30 100 C 30 140, 60 170, 100 170 C 140 170, 170 140, 170 100 C 170 70, 140 30, 100 30" fill="#9370DB"/>
  
  <!-- Cuello y hombros -->
  <path d="M70 150 L 50 180 L 150 180 L 130 150" fill="#483D8B"/>
  
  <!-- Ojos felices -->
  <path d="M65 85 C 70 80, 75 80, 80 85" stroke="#000" stroke-width="3" fill="none"/>
  <path d="M125 85 C 130 80, 135 80, 140 85" stroke="#000" stroke-width="3" fill="none"/>
  
  <!-- Boca feliz -->
  <path d="M80 120 C 90 140, 110 140, 120 120" stroke="#000" stroke-width="5" fill="none"/>
  
  <!-- Mentón con líneas -->
  <path d="M85 140 C 95 145, 105 145, 115 140" stroke="#8B008B" stroke-width="2" fill="none"/>
  
  <!-- Destellos en los ojos -->
  <circle cx="72" cy="82" r="2" fill="#fff"/>
  <circle cx="132" cy="82" r="2" fill="#fff"/>
</svg> 